<svg width="40" height="31" viewBox="0 0 40 31" fill="none" xmlns="http://www.w3.org/2000/svg">
<path fill-rule="evenodd" clip-rule="evenodd" d="M3.86904 0.0571088C3.61032 0.098389 2.96843 0.390581 2.44261 0.706643C1.8485 1.06363 1.26794 1.60978 0.909374 2.14912C0.591993 2.62653 0.24858 3.32991 0.146233 3.7122C0.0240953 4.16933 -0.0226203 8.20582 0.0101876 15.4964C0.0597561 26.5346 0.0617174 26.5888 0.45256 27.3241C0.668485 27.7306 1.0431 28.2996 1.2847 28.5889C1.52648 28.878 2.15215 29.3531 2.67512 29.6448L3.62601 30.1749H20.03H36.4339L37.3848 29.6448C37.9078 29.3531 38.5335 28.878 38.7752 28.5889C39.0168 28.2996 39.3915 27.7306 39.6074 27.3241L40 26.5854V15.0987V3.61205L39.6074 2.87331C39.3915 2.46679 39.0168 1.89785 38.7752 1.60853C38.5335 1.31938 37.9078 0.844304 37.3848 0.55265L36.4339 0.0224692L20.3866 0.00218792C11.5605 -0.00893978 4.12758 0.0156491 3.86904 0.0571088ZM35.4422 2.58005C35.4363 2.65417 32.1026 5.58183 28.034 9.08616C23.9657 12.5905 20.4902 15.5618 20.311 15.689C20.0189 15.8965 19.1919 15.2382 12.3073 9.31751C8.08432 5.68593 4.62416 2.65417 4.61792 2.58005C4.61168 2.50592 11.5472 2.44544 20.03 2.44544C28.5128 2.44544 35.4483 2.50592 35.4422 2.58005ZM7.93437 8.85284C10.7623 11.2912 13.0761 13.3549 13.0761 13.4389C13.0761 13.5229 10.7493 16.2867 7.9053 19.5805C5.06136 22.8745 2.67423 25.5758 2.60076 25.5839C2.5273 25.5918 2.46704 20.8331 2.46704 15.009C2.46704 8.74066 2.53354 4.41971 2.62983 4.41971C2.71934 4.41971 5.10647 6.41461 7.93437 8.85284ZM37.5929 15.009C37.5929 20.8331 37.5326 25.5916 37.4592 25.5833C37.3857 25.5751 34.9986 22.8757 32.1546 19.5848C29.3107 16.2937 26.9838 13.5302 26.9838 13.4436C26.9838 13.357 29.2977 11.2912 32.1256 8.85284C34.9535 6.41461 37.3406 4.41971 37.4301 4.41971C37.5264 4.41971 37.5929 8.74066 37.5929 15.009ZM17.2677 16.9028C18.3559 17.8456 19.4225 18.6833 19.6381 18.7644C19.8536 18.8453 20.2076 18.8444 20.4244 18.7621C20.6414 18.6799 21.7126 17.8381 22.8051 16.8917C23.8974 15.9451 24.8609 15.1949 24.9462 15.2243C25.0314 15.254 27.4738 18.0064 30.3736 21.3408C33.2735 24.6753 35.598 27.482 35.5392 27.5777C35.4714 27.6883 29.7939 27.752 20.03 27.752C10.2946 27.752 4.5885 27.6881 4.5211 27.5782C4.46244 27.4828 6.80428 24.656 9.72507 21.2965C12.646 17.937 15.0929 15.1884 15.1626 15.1884C15.2323 15.1884 16.1797 15.9598 17.2677 16.9028Z" fill="white"/>
</svg>
