<svg width="46" height="46" viewBox="0 0 46 46" fill="none" xmlns="http://www.w3.org/2000/svg">
<path fill-rule="evenodd" clip-rule="evenodd" d="M21.4587 0.0167347C21.2629 0.0368442 20.7624 0.0948593 20.3464 0.145756C19.9304 0.196653 19.0896 0.34 18.4778 0.464394C17.8661 0.588788 16.785 0.881622 16.0754 1.11528C15.3657 1.34895 14.4448 1.69535 14.0288 1.88523C13.6128 2.07502 12.8721 2.44394 12.3827 2.705C11.8933 2.96616 11.0946 3.44443 10.6079 3.76778C10.1211 4.09123 9.34028 4.66453 8.87277 5.04189C8.40518 5.41917 7.57313 6.18262 7.02368 6.7383C6.47431 7.29398 5.7429 8.10147 5.39845 8.53267C5.05401 8.96396 4.53837 9.66468 4.25274 10.0898C3.96703 10.5151 3.50487 11.2834 3.22574 11.7973C2.94652 12.3111 2.55518 13.0919 2.35595 13.5324C2.15673 13.9728 1.80205 14.9138 1.56768 15.6234C1.33331 16.333 1.04163 17.3941 0.919458 17.9814C0.797288 18.5687 0.644687 19.4295 0.580266 19.8945C0.512107 20.3871 0.463257 21.5751 0.463257 22.7418C0.463257 23.9085 0.512107 25.0966 0.580266 25.5892C0.644687 26.0541 0.797199 26.915 0.919369 27.5023C1.04145 28.0895 1.28232 29.0105 1.45459 29.5488C1.62694 30.0871 1.97281 31.0081 2.2232 31.5954C2.47368 32.1826 2.87337 33.0235 3.1114 33.4639C3.34942 33.9044 3.78809 34.6451 4.08626 35.1101C4.38444 35.575 4.9968 36.4165 5.44722 36.9802C5.89754 37.5438 6.74748 38.4691 7.33591 39.0364C7.92433 39.6037 8.8201 40.386 9.32648 40.7747C9.83287 41.1634 10.5875 41.6959 11.0035 41.9579C11.4195 42.22 12.2003 42.666 12.7386 42.949C13.2769 43.2321 14.2845 43.6866 14.9778 43.959C15.6709 44.2313 16.7721 44.59 17.4247 44.7559C18.0773 44.9217 18.7814 45.0852 18.9895 45.119L19.3676 45.1805V36.3191V27.4578H16.6537H13.9398V24.299V21.1402H16.6537H19.3676L19.3691 18.8934C19.3699 17.6578 19.41 16.1662 19.4584 15.5789C19.5067 14.9917 19.6291 14.1708 19.7305 13.7548C19.8318 13.3388 20.1099 12.5981 20.3485 12.1087C20.5944 11.6043 20.9822 10.988 21.2439 10.6858C21.4977 10.3925 21.9503 9.95546 22.2494 9.71433C22.5486 9.47328 23.1561 9.10366 23.5995 8.89286C24.0429 8.68216 24.7637 8.41851 25.2012 8.30711C25.9428 8.11829 26.1654 8.10539 28.4881 8.11678C29.8584 8.12354 31.2999 8.16358 31.6914 8.20576L32.4032 8.28255L32.4267 11.0958L32.4502 13.9091L30.3357 13.9603C29.1727 13.9885 28.0305 14.0572 27.7974 14.1131C27.5644 14.1689 27.1845 14.3449 26.9533 14.5043C26.6968 14.681 26.4546 14.9471 26.3323 15.1864C26.222 15.4023 26.0913 15.7946 26.0419 16.0582C25.9926 16.3218 25.9522 17.5731 25.9522 18.8388V21.1402H29.115H32.2779L32.2279 21.4294C32.2005 21.5884 32.0185 22.9596 31.8235 24.4764C31.6285 25.9932 31.4689 27.2846 31.4689 27.346C31.4689 27.4333 30.8646 27.4578 28.7105 27.4578H25.9522V36.4057V45.3537L26.3748 45.2945C26.6073 45.2619 27.2764 45.1361 27.8618 45.0148C28.4472 44.8936 29.3681 44.6603 29.9083 44.4964C30.4485 44.3325 31.3292 44.0144 31.8653 43.7896C32.4014 43.5649 33.298 43.1404 33.8578 42.8465C34.4175 42.5525 35.2401 42.0683 35.6859 41.7705C36.1316 41.4727 36.907 40.9078 37.4089 40.5152C37.9107 40.1225 38.8517 39.255 39.4999 38.5874C40.1481 37.9198 40.9633 36.9944 41.3115 36.531C41.6597 36.0676 42.125 35.4082 42.3458 35.0656C42.5665 34.723 42.9461 34.0823 43.1895 33.6419C43.4329 33.2014 43.8034 32.4607 44.0128 31.9958C44.2224 31.5308 44.5855 30.5699 44.8199 29.8602C45.0543 29.1506 45.3459 28.0895 45.4681 27.5023C45.5903 26.915 45.7435 26.0541 45.8086 25.5892C45.8792 25.0853 45.9263 23.9353 45.9252 22.7418C45.9242 21.5913 45.8738 20.3802 45.8068 19.8945C45.7427 19.4295 45.5903 18.5687 45.4681 17.9814C45.3459 17.3941 45.0543 16.333 44.8199 15.6234C44.5855 14.9138 44.2308 13.9728 44.0316 13.5324C43.8324 13.0919 43.441 12.3111 43.1618 11.7973C42.8827 11.2834 42.4191 10.5129 42.1317 10.0851C41.8443 9.65738 41.2943 8.91662 40.9096 8.43898C40.5248 7.96142 39.7949 7.15553 39.2874 6.64816C38.7801 6.14071 37.9824 5.41739 37.5148 5.04064C37.0473 4.66399 36.2665 4.09123 35.7797 3.76778C35.2929 3.44443 34.4943 2.96616 34.0049 2.705C33.5155 2.44394 32.7777 2.07654 32.3652 1.88861C31.9528 1.70068 31.0893 1.37119 30.4465 1.15639C29.8037 0.941595 28.8398 0.667714 28.3045 0.547857C27.7693 0.427912 26.9109 0.265256 26.3971 0.18642C25.8513 0.102601 24.7043 0.0299038 23.6387 0.0115739C22.6354 -0.00568828 21.6544 -0.0033748 21.4587 0.0167347Z" fill="white"/>
</svg>
