<svg width="46" height="46" viewBox="0 0 46 46" fill="none" xmlns="http://www.w3.org/2000/svg">
<path fill-rule="evenodd" clip-rule="evenodd" d="M10.9877 0.0612272C10.6696 0.102865 10.1091 0.203133 9.74213 0.284184C9.37513 0.365146 8.69469 0.568708 8.23001 0.736503C7.76532 0.904388 7.08471 1.20359 6.71753 1.40155C6.35036 1.59959 5.78958 1.93447 5.47143 2.14586C5.15336 2.35726 4.61288 2.77692 4.27034 3.07844C3.9279 3.37996 3.39373 3.91404 3.08332 4.2652C2.77299 4.61636 2.30795 5.22393 2.05003 5.6154C1.79211 6.00686 1.45091 6.58543 1.29183 6.90118C1.13267 7.21684 0.867806 7.84719 0.703213 8.30182C0.53862 8.75654 0.313083 9.53921 0.20196 10.0411L0 10.9536V22.742V34.5304L0.20196 35.4429C0.313083 35.9447 0.53862 36.7274 0.703213 37.1821C0.867806 37.6368 1.13267 38.2671 1.29183 38.5828C1.45091 38.8985 1.79211 39.4771 2.05003 39.8685C2.30795 40.26 2.77299 40.8676 3.08332 41.2187C3.39373 41.5699 3.9279 42.104 4.27034 42.4055C4.61288 42.707 5.15336 43.1267 5.47143 43.3381C5.78958 43.5495 6.35036 43.8843 6.71753 44.0824C7.08471 44.2803 7.77511 44.5835 8.25172 44.756C8.72832 44.9285 9.52887 45.1605 10.0307 45.2716L10.9432 45.4736H22.7316H34.5201L35.4325 45.2716C35.9344 45.1605 36.7349 44.9285 37.2116 44.756C37.6882 44.5835 38.3786 44.2803 38.7457 44.0824C39.1129 43.8843 39.6737 43.5495 39.9918 43.3381C40.3099 43.1267 40.8504 42.707 41.1929 42.4055C41.5354 42.104 42.0693 41.5699 42.3793 41.2187C42.6894 40.8676 43.1161 40.3201 43.3276 40.002C43.539 39.6839 43.874 39.1232 44.0721 38.7561C44.27 38.3889 44.5731 37.6985 44.7456 37.2219C44.9182 36.7453 45.1502 35.9447 45.2613 35.4429L45.4633 34.5304V22.742V10.9536L45.2613 10.0411C45.1502 9.53921 44.9182 8.73866 44.7456 8.26205C44.5731 7.78545 44.27 7.09504 44.0721 6.72787C43.874 6.36069 43.5391 5.79992 43.3277 5.48177C43.1164 5.1637 42.6967 4.62321 42.3952 4.28068C42.0937 3.93824 41.5596 3.40433 41.2084 3.09428C40.8572 2.78422 40.3097 2.35752 39.9917 2.14604C39.6736 1.93456 39.1129 1.59959 38.7457 1.40155C38.3786 1.20359 37.6886 0.900652 37.2125 0.728318C36.7364 0.555985 35.9558 0.325644 35.4779 0.216389L34.609 0.0178991L23.0875 0.00170675C16.7507 -0.00719017 11.3058 0.0195896 10.9877 0.0612272ZM35.1873 4.30844C35.5543 4.42045 36.2149 4.68665 36.6553 4.90008C37.0957 5.11352 37.7163 5.48586 38.0343 5.7275C38.3524 5.96914 38.8529 6.42386 39.1465 6.73801C39.4401 7.05225 39.8341 7.54105 40.0221 7.82424C40.2101 8.10751 40.4989 8.63136 40.6638 8.98849C40.8288 9.34552 41.0554 9.9538 41.1672 10.3401L41.3707 11.0425V22.742V34.4414L41.1665 35.1532C41.0541 35.5446 40.7875 36.2253 40.5739 36.6657C40.3603 37.1061 39.9877 37.7266 39.7461 38.0447C39.5045 38.3627 39.0497 38.8632 38.7356 39.1568C38.4214 39.4504 37.9326 39.8444 37.6494 40.0324C37.3661 40.2204 36.8422 40.5092 36.4851 40.6742C36.1281 40.8391 35.5198 41.0657 35.1335 41.1776L34.4311 41.381H22.7316H11.0322L10.3298 41.1776C9.94347 41.0657 9.33518 40.8391 8.97815 40.6742C8.62103 40.5092 8.09718 40.2204 7.8139 40.0324C7.53071 39.8444 7.04191 39.4504 6.72767 39.1568C6.41352 38.8632 5.9588 38.3627 5.71716 38.0447C5.47552 37.7266 5.10301 37.1061 4.88939 36.6657C4.67578 36.2253 4.40914 35.5446 4.29677 35.1532L4.09258 34.4414V22.742V11.0425L4.29606 10.3401C4.40789 9.9538 4.6345 9.34552 4.79944 8.98849C4.96439 8.63136 5.25319 8.10751 5.44118 7.82424C5.62917 7.54105 6.02179 7.05403 6.31361 6.74201C6.60543 6.43009 7.06869 6.00206 7.34299 5.79102C7.61737 5.5799 8.09922 5.26575 8.41382 5.09297C8.7285 4.9201 9.25111 4.67891 9.57522 4.55702C9.89934 4.43504 10.4398 4.27588 10.7763 4.20319C11.3021 4.08958 13.0123 4.07338 22.9541 4.08788L34.5201 4.10488L35.1873 4.30844ZM34.1197 7.69532C33.9974 7.73544 33.7371 7.85102 33.5414 7.95208C33.3457 8.05324 33.0388 8.28946 32.8594 8.47709C32.6802 8.66473 32.4484 8.98359 32.3445 9.18573C32.2406 9.38778 32.112 9.78814 32.0587 10.0754C31.9872 10.4614 31.9891 10.7281 32.066 11.0974C32.1232 11.3722 32.2984 11.8112 32.4553 12.073C32.6123 12.3347 32.9409 12.7012 33.1855 12.8875C33.4302 13.0737 33.8475 13.2901 34.113 13.3684C34.4362 13.4637 34.7921 13.4968 35.1897 13.4684C35.5635 13.4416 35.9392 13.3482 36.2031 13.2164C36.4337 13.1013 36.7783 12.8736 36.9688 12.7105C37.1664 12.5414 37.4404 12.1596 37.6068 11.8215C37.8598 11.3077 37.8982 11.1397 37.8958 10.5575C37.8935 10.0132 37.8451 9.78058 37.6402 9.33013C37.4915 9.00281 37.2314 8.63039 37.008 8.42451C36.7993 8.23207 36.4544 7.98465 36.2415 7.8745C35.9479 7.72263 35.6721 7.66801 35.0984 7.64834C34.6824 7.63402 34.242 7.65519 34.1197 7.69532ZM21.575 11.0536C21.4038 11.0754 20.9316 11.1535 20.5259 11.2271C20.1201 11.3008 19.3867 11.4975 18.8963 11.6643C18.4058 11.8311 17.703 12.1303 17.3345 12.329C16.966 12.5278 16.4581 12.8276 16.206 12.9953C15.9539 13.163 15.4556 13.5462 15.0988 13.847C14.742 14.1477 14.1908 14.6976 13.8739 15.0691C13.557 15.4404 13.1587 15.9537 12.9889 16.2096C12.819 16.4655 12.5221 16.9689 12.329 17.3285C12.1359 17.688 11.8542 18.3224 11.7028 18.7384C11.5516 19.1543 11.3416 19.895 11.2363 20.3843C11.084 21.0919 11.0448 21.5743 11.0448 22.742C11.0448 23.9096 11.084 24.392 11.2363 25.0997C11.3416 25.589 11.5516 26.3297 11.7028 26.7456C11.8542 27.1615 12.1359 27.796 12.329 28.1555C12.5221 28.515 12.8173 29.0155 12.985 29.2676C13.1527 29.5197 13.5359 30.018 13.8367 30.3748C14.1374 30.7316 14.6873 31.2828 15.0588 31.5997C15.4301 31.9167 15.9434 32.3149 16.1992 32.4847C16.4551 32.6546 16.9586 32.9515 17.3181 33.1446C17.6776 33.3377 18.3121 33.6194 18.728 33.7708C19.144 33.922 19.8846 34.132 20.374 34.2373C21.0816 34.3896 21.564 34.4288 22.7316 34.4288C23.8993 34.4288 24.3817 34.3896 25.0893 34.2373C25.5786 34.132 26.3193 33.922 26.7352 33.7708C27.1512 33.6194 27.7856 33.3377 28.1451 33.1446C28.5047 32.9515 29.0081 32.6546 29.264 32.4847C29.5199 32.3149 30.0332 31.9167 30.4045 31.5997C30.776 31.2828 31.3259 30.7316 31.6266 30.3748C31.9274 30.018 32.3106 29.5197 32.4783 29.2676C32.646 29.0155 32.9412 28.515 33.1343 28.1555C33.3273 27.796 33.6091 27.1615 33.7604 26.7456C33.9117 26.3297 34.1217 25.589 34.227 25.0997C34.3793 24.392 34.4185 23.9096 34.4185 22.742C34.4185 21.5743 34.3793 21.0919 34.227 20.3843C34.1217 19.895 33.9117 19.1543 33.7604 18.7384C33.6091 18.3224 33.3273 17.688 33.1343 17.3285C32.9412 16.9689 32.6442 16.4655 32.4744 16.2096C32.3045 15.9537 31.9063 15.4404 31.5894 15.0691C31.2725 14.6976 30.7212 14.1477 30.3645 13.847C30.0076 13.5462 29.5094 13.163 29.2573 12.9953C29.0051 12.8276 28.4973 12.5278 28.1288 12.329C27.7603 12.1303 27.0592 11.8317 26.5707 11.6657C26.0823 11.4996 25.349 11.2989 24.9412 11.2199C24.5333 11.1408 23.6792 11.0622 23.043 11.0451C22.4069 11.0281 21.7463 11.0319 21.575 11.0536ZM24.2761 15.2243C24.6321 15.2978 25.1737 15.4561 25.4797 15.576C25.7857 15.696 26.2834 15.9333 26.5858 16.1036C26.8882 16.2739 27.3696 16.6123 27.6556 16.8556C27.9416 17.0989 28.3747 17.532 28.618 17.818C28.8613 18.104 29.1997 18.5854 29.37 18.8878C29.5403 19.1902 29.7776 19.6879 29.8976 19.9939C30.0175 20.2999 30.1758 20.8415 30.2493 21.1975C30.3228 21.5535 30.383 22.2485 30.383 22.742C30.383 23.2354 30.3228 23.9304 30.2493 24.2865C30.1758 24.6424 30.0175 25.1841 29.8976 25.4901C29.7776 25.796 29.5403 26.2937 29.37 26.5961C29.1997 26.8985 28.8613 27.3799 28.618 27.666C28.3747 27.9519 27.9548 28.3723 27.6849 28.6001C27.415 28.8279 26.9734 29.1478 26.7036 29.3108C26.4337 29.4739 25.9298 29.7226 25.5836 29.8634C25.2375 30.0043 24.6561 30.1811 24.2916 30.2564C23.9271 30.3318 23.2251 30.3933 22.7316 30.3933C22.2382 30.3933 21.5432 30.3332 21.1871 30.2596C20.8312 30.1861 20.2895 30.0278 19.9836 29.9079C19.6776 29.788 19.1799 29.5506 18.8775 29.3803C18.5751 29.21 18.0937 28.8717 17.8076 28.6284C17.5217 28.385 17.0886 27.9519 16.8453 27.666C16.6019 27.3799 16.2636 26.8985 16.0933 26.5961C15.923 26.2937 15.6856 25.796 15.5657 25.4901C15.4458 25.1841 15.2875 24.6424 15.214 24.2865C15.1404 23.9304 15.0803 23.2354 15.0803 22.742C15.0803 22.2485 15.1404 21.5535 15.214 21.1975C15.2875 20.8415 15.4458 20.2999 15.5657 19.9939C15.6856 19.6879 15.923 19.1902 16.0933 18.8878C16.2636 18.5854 16.6019 18.104 16.8453 17.818C17.0886 17.532 17.5217 17.0989 17.8076 16.8556C18.0937 16.6123 18.5751 16.2739 18.8775 16.1036C19.1799 15.9333 19.6795 15.6952 19.9878 15.5743C20.2961 15.4535 20.8095 15.2985 21.1284 15.2299C21.4475 15.1613 22.1405 15.1018 22.6686 15.0979C23.2068 15.0938 23.9133 15.1493 24.2761 15.2243Z" fill="white"/>
</svg>
