<svg width="40" height="40" viewBox="0 0 40 40" fill="none" xmlns="http://www.w3.org/2000/svg">
<path fill-rule="evenodd" clip-rule="evenodd" d="M18.9685 0.0375288C18.5057 0.0708778 17.6468 0.178027 17.0598 0.275637C16.4728 0.373247 15.6524 0.546675 15.2366 0.660995C14.8208 0.775314 14.1177 0.99713 13.6742 1.15392C13.2306 1.31071 12.3629 1.68353 11.7458 1.98242C11.1287 2.28131 10.3053 2.72703 9.91595 2.9728C9.52663 3.21863 8.89551 3.65495 8.51347 3.94249C8.13144 4.22996 7.50327 4.74725 7.11759 5.09202C6.7319 5.43672 6.19272 5.96613 5.91945 6.26836C5.6461 6.57066 5.20643 7.08426 4.94234 7.40974C4.67818 7.73522 4.23472 8.34616 3.95682 8.76737C3.67892 9.18859 3.29471 9.81518 3.10299 10.1598C2.91134 10.5044 2.5915 11.1512 2.39228 11.5972C2.19306 12.0431 1.87568 12.8733 1.68704 13.4421C1.49848 14.011 1.26048 14.868 1.15831 15.3467C1.05607 15.8253 0.926829 16.5459 0.87108 16.948C0.815261 17.35 0.749906 18.2116 0.725784 18.8626C0.698716 19.593 0.714494 20.4193 0.767017 21.0209C0.813859 21.5569 0.912383 22.3482 0.985943 22.7792C1.0595 23.2102 1.19954 23.8754 1.29708 24.2574C1.39463 24.6394 1.58123 25.2737 1.7118 25.6669C1.84237 26.06 2.11003 26.7582 2.30666 27.2183C2.50329 27.6785 2.85587 28.3972 3.09015 28.8155L3.51616 29.576L2.76408 31.8081C2.35042 33.0357 1.55928 35.3677 1.006 36.9903C0.45272 38.6128 0 39.9645 0 39.9941C0 40.0237 0.33926 39.9386 0.753833 39.8049C1.16841 39.6713 3.61637 38.8924 6.19363 38.0739L10.8796 36.586L11.2426 36.7891C11.4422 36.9008 11.9369 37.1384 12.3418 37.3172C12.7468 37.4959 13.3779 37.7509 13.7443 37.8837C14.1107 38.0166 14.8872 38.2465 15.4698 38.3946C16.0525 38.5428 16.9834 38.7333 17.5385 38.8181C18.3658 38.9444 18.8577 38.9728 20.2658 38.976C21.2605 38.9783 22.2644 38.9434 22.6501 38.8931C23.0164 38.8453 23.719 38.7279 24.2113 38.6322C24.7036 38.5364 25.461 38.3513 25.8943 38.2209C26.3276 38.0903 26.9346 37.891 27.2432 37.7778C27.5517 37.6646 28.1039 37.4384 28.4703 37.2749C28.8367 37.1115 29.4205 36.8224 29.7676 36.6324C30.1148 36.4424 30.7143 36.0829 31.1 35.8335C31.4857 35.5841 32.0695 35.1731 32.3973 34.9201C32.7251 34.6671 33.3104 34.1731 33.6979 33.8222C34.0854 33.4714 34.6803 32.8698 35.0199 32.4855C35.3596 32.1012 35.87 31.4792 36.1542 31.1032C36.4384 30.7274 36.9079 30.0261 37.1975 29.5448C37.4872 29.0636 37.9099 28.2804 38.1371 27.8043C38.3642 27.3282 38.6782 26.5784 38.8348 26.1381C38.9914 25.6977 39.2011 25.0555 39.3008 24.7108C39.4004 24.3662 39.5591 23.6769 39.6534 23.1791C39.7478 22.6813 39.857 21.9608 39.8962 21.5778C39.9354 21.1949 39.9794 20.5213 39.994 20.081C40.0085 19.6406 39.9958 18.8574 39.9657 18.3404C39.9355 17.8235 39.8604 17.0559 39.7987 16.6347C39.737 16.2135 39.5756 15.4222 39.4401 14.8763C39.3045 14.3304 39.0712 13.5311 38.9216 13.1002C38.7719 12.6693 38.4799 11.9411 38.2727 11.4819C38.0655 11.0228 37.6963 10.3025 37.4522 9.88132C37.2081 9.46011 36.8021 8.81785 36.55 8.45407C36.298 8.0903 35.9005 7.55769 35.6668 7.2705C35.4331 6.98331 34.8622 6.36082 34.3981 5.88711C33.9341 5.41347 33.2388 4.76807 32.8531 4.45296C32.4674 4.13785 31.8521 3.67549 31.4857 3.42548C31.1193 3.17547 30.4724 2.77263 30.0481 2.53028C29.6239 2.28792 28.9016 1.92276 28.4431 1.71876C27.9845 1.51477 27.2902 1.2374 26.9003 1.1024C26.5104 0.967333 25.7811 0.750459 25.2797 0.620475C24.7783 0.49042 24.0841 0.337392 23.737 0.280371C23.3899 0.223351 22.8061 0.145304 22.4397 0.106943C22.0733 0.0685809 21.3317 0.0236052 20.7918 0.00703512C20.2518 -0.00953493 19.4314 0.0041798 18.9685 0.0375288ZM23.0443 3.49879C23.4732 3.57607 24.1517 3.72478 24.552 3.82936C24.9522 3.93393 25.6101 4.14092 26.0139 4.28942C26.4177 4.43785 27.1277 4.74287 27.5917 4.96719C28.0557 5.19158 28.8416 5.64482 29.3381 5.97455C29.8347 6.30421 30.4973 6.78878 30.8107 7.0514C31.1241 7.31401 31.6862 7.83882 32.0598 8.21771C32.4334 8.59659 32.9037 9.11026 33.1048 9.35916C33.3059 9.60806 33.7179 10.1851 34.0204 10.6415C34.3228 11.0978 34.7247 11.7714 34.9135 12.1383C35.1024 12.5052 35.4002 13.167 35.5753 13.6089C35.7505 14.0508 35.9895 14.7714 36.1066 15.2102C36.2236 15.649 36.3864 16.3684 36.4683 16.8087C36.5721 17.3667 36.6288 18.0234 36.6554 18.9753C36.6788 19.8119 36.6617 20.6482 36.6113 21.1336C36.566 21.5694 36.4484 22.3176 36.35 22.7962C36.2516 23.2749 36.0313 24.0895 35.8604 24.6064C35.6895 25.1233 35.3174 26.0162 35.0335 26.5906C34.7497 27.165 34.298 27.9639 34.0299 28.366C33.7618 28.7681 33.3429 29.3477 33.099 29.654C32.8552 29.9603 32.2899 30.5714 31.8427 31.012C31.3956 31.4525 30.667 32.0826 30.2234 32.412C29.7799 32.7415 29.2876 33.0912 29.1294 33.1893C28.9711 33.2873 28.5591 33.5233 28.2138 33.7137C27.8685 33.9041 27.2238 34.2164 26.7811 34.4077C26.3384 34.599 25.7091 34.8397 25.3826 34.9425C25.056 35.0452 24.4733 35.2034 24.0876 35.2939C23.7019 35.3845 23.0077 35.5131 22.5449 35.5797C21.9523 35.6649 21.2885 35.6991 20.3009 35.6955C19.2328 35.6916 18.6684 35.6546 17.9337 35.5406C17.403 35.4583 16.5739 35.2836 16.0914 35.1523C15.6088 35.0209 14.849 34.7718 14.4029 34.5986C13.9569 34.4255 13.2809 34.1252 12.9007 33.9313C12.5205 33.7374 12.0209 33.4577 11.7904 33.3099L11.3714 33.041L9.31464 33.6926C8.1834 34.051 6.77657 34.4993 6.18844 34.6889C5.60031 34.8784 5.11905 35.0161 5.11905 34.9948C5.11905 34.9736 5.5717 33.6222 6.12491 31.9918L7.13077 29.0274L6.64502 28.2964C6.37785 27.8943 5.94413 27.1267 5.68117 26.5906C5.4182 26.0545 5.08981 25.2939 4.95139 24.9003C4.81303 24.5068 4.61956 23.8708 4.5216 23.4871C4.42363 23.1033 4.27792 22.3758 4.19783 21.8703C4.08921 21.1852 4.05078 20.6056 4.04686 19.5936C4.04328 18.669 4.07974 17.9614 4.16137 17.375C4.22722 16.9015 4.35673 16.1965 4.44909 15.8085C4.54144 15.4205 4.73197 14.762 4.87243 14.3454C5.01288 13.9287 5.27108 13.2707 5.44625 12.8833C5.62135 12.4958 5.94981 11.8594 6.17617 11.4688C6.40246 11.0783 6.78436 10.484 7.02481 10.148C7.26527 9.81219 7.7358 9.22312 8.0705 8.83908C8.40513 8.45498 8.83254 7.99652 9.02026 7.82016C9.20798 7.64388 9.614 7.28825 9.92255 7.02988C10.2311 6.77159 10.8609 6.3093 11.3221 6.00268C11.7834 5.69599 12.6354 5.21428 13.2154 4.93217C13.7956 4.64999 14.6962 4.28037 15.2169 4.1107C15.7376 3.94103 16.4791 3.73544 16.8648 3.6537C17.2505 3.57203 17.8974 3.46113 18.3024 3.40724C18.8141 3.33908 19.5305 3.31673 20.6515 3.33379C21.8778 3.35251 22.4513 3.39206 23.0443 3.49879ZM13.4638 9.98088C13.3288 10.0084 13.0922 10.096 12.9379 10.1754C12.7836 10.2548 12.4503 10.5345 12.1973 10.7969C11.9442 11.0591 11.6407 11.4148 11.5229 11.5871C11.405 11.7594 11.2076 12.0995 11.0842 12.3429C10.9607 12.5864 10.8008 13.0138 10.729 13.2928C10.6571 13.5719 10.5769 14.0933 10.5509 14.4515C10.5165 14.9245 10.5349 15.2824 10.618 15.7575C10.6811 16.1175 10.8126 16.6501 10.9103 16.9411C11.0081 17.2321 11.2407 17.7885 11.4272 18.1776C11.6137 18.5667 12.0707 19.3558 12.4425 19.9312C12.8145 20.5066 13.343 21.2847 13.617 21.6605C13.8911 22.0362 14.3552 22.6256 14.6485 22.9703C14.9417 23.3149 15.4972 23.9123 15.8829 24.2978C16.2687 24.6833 16.8841 25.245 17.2505 25.5461C17.6169 25.8471 18.248 26.3105 18.653 26.5759C19.058 26.8413 19.6626 27.1949 19.9968 27.3617C20.3309 27.5286 21.0568 27.8519 21.6099 28.0802C22.163 28.3085 22.917 28.6037 23.2854 28.7361C23.6539 28.8685 24.2375 29.0471 24.5825 29.133C25.098 29.2613 25.3219 29.2817 25.8407 29.2475C26.1878 29.2246 26.6927 29.1585 26.9627 29.1007C27.2327 29.0429 27.7398 28.8554 28.0897 28.684C28.4396 28.5125 28.9129 28.2283 29.1416 28.0525C29.3702 27.8766 29.6753 27.5854 29.8195 27.4053C29.9752 27.2109 30.1511 26.866 30.2528 26.5558C30.3469 26.2686 30.4577 25.8676 30.499 25.6647C30.5403 25.4618 30.5741 25.1442 30.5741 24.9588C30.5741 24.7397 30.5311 24.571 30.4513 24.4763C30.3839 24.3963 29.9026 24.1009 29.382 23.8197C28.8613 23.5386 27.9462 23.0551 27.3484 22.7455C26.7506 22.4359 26.1302 22.1441 25.9698 22.0973C25.8093 22.0504 25.5998 22.0316 25.5042 22.0554C25.3976 22.082 25.032 22.443 24.5607 22.9871C24.1375 23.4757 23.6305 24.0242 23.434 24.2061C23.1741 24.4467 23.0201 24.5368 22.8686 24.5368C22.7541 24.5368 22.2851 24.3502 21.8263 24.1222C21.3675 23.8942 20.7104 23.5236 20.366 23.2985C20.0217 23.0735 19.5009 22.698 19.2088 22.4641C18.9166 22.2302 18.393 21.7431 18.0451 21.3818C17.6971 21.0204 17.1746 20.3998 16.8839 20.0026C16.5932 19.6053 16.1938 18.9997 15.9965 18.6566C15.7661 18.2563 15.6377 17.9515 15.6377 17.8054C15.6377 17.6153 15.7443 17.4628 16.2863 16.8779C16.643 16.4928 17.0371 15.9987 17.162 15.7796C17.288 15.5587 17.3894 15.2807 17.3899 15.1548C17.3904 15.0302 17.0199 13.9367 16.5668 12.7246C15.9442 11.0597 15.6914 10.4664 15.5325 10.2976C15.335 10.0878 15.2835 10.0713 14.691 10.0268C14.3439 10.0009 13.981 9.96863 13.8846 9.95519C13.7881 9.94183 13.5988 9.95338 13.4638 9.98088Z" fill="white"/>
</svg>
