<svg width="90" height="120" viewBox="0 0 90 120" fill="none" xmlns="http://www.w3.org/2000/svg">
<path d="M51 6C51 2.68629 48.3137 1.44847e-07 45 0C41.6863 -1.44847e-07 39 2.68629 39 6L51 6ZM40.7574 118.243C43.1005 120.586 46.8995 120.586 49.2426 118.243L87.4264 80.0589C89.7696 77.7157 89.7696 73.9167 87.4264 71.5736C85.0833 69.2305 81.2843 69.2305 78.9411 71.5736L45 105.515L11.0589 71.5736C8.71573 69.2305 4.91674 69.2305 2.57359 71.5736C0.230443 73.9167 0.230443 77.7157 2.57359 80.0589L40.7574 118.243ZM39 6L39 114L51 114L51 6L39 6Z" fill="#D47F00" fill-opacity="0.5"/>
</svg>
